<svg width="882" height="930" viewBox="0 0 882 930" fill="none" xmlns="http://www.w3.org/2000/svg">
<g clip-path="url(#clip0_3_1346)">
<path d="M181.2 821.3L181.5 813.5L210 813L238.5 812.5L238.8 802.2C239 794.6 238.7 791.8 237.8 791.5C237.1 791.2 226.2 790.9 213.5 790.7C187.6 790.3 185.4 789.8 181 783.3C178.6 779.8 178.5 779.1 178.5 763.1C178.5 747.8 178.7 746.2 180.7 743C181.9 741.1 184.4 738.6 186.2 737.5C189.3 735.6 191.6 735.5 219.8 735.2C242.2 735 250.5 735.2 251.6 736.1C253.1 737.4 253.6 747.5 252.1 749.8C251.5 750.8 245 751.1 223.4 751.3L195.5 751.5L195.2 762.3L194.9 773H211.2C242.8 773.1 247.2 774 252.1 781.9C255 786.3 255 786.6 255 801.1C255 817 254.3 820.1 250.2 824.1C245.2 829 244.9 829 212 829H180.9L181.2 821.3Z" fill="url(#paint0_linear_3_1346)"/>
<path d="M285.2 782.298L285.5 735.498L293.3 735.198L301 734.898V753.998V772.998H321.4C332.6 772.998 342.5 773.298 343.4 773.598C344.8 774.098 345 771.898 345.2 754.798L345.5 735.498L351.5 735.198C354.7 734.998 358.4 735.098 359.7 735.498L362 735.998V780.898C362 805.598 361.7 826.498 361.4 827.398C360.9 828.698 359.2 828.998 352.9 828.998H345V809.998V790.998H323H301V809.998V828.998H293H285L285.2 782.298Z" fill="url(#paint1_linear_3_1346)"/>
<path d="M394.2 782.3L394.5 735.5H402H409.5L409.8 782.3L410 829H402H394L394.2 782.3Z" fill="url(#paint2_linear_3_1346)"/>
<path d="M447.3 824.602L442.5 820.202L442.2 784.102C441.9 743.302 441.9 743.102 449.3 738.202L453.3 735.502L479.8 735.202C494.4 735.002 507.4 735.102 508.7 735.502C511 736.002 511.1 736.402 510.8 743.702L510.5 751.302L484.8 751.102L459.1 750.902L458.5 753.202C458.2 754.502 458.1 768.302 458.2 784.002L458.5 812.502L484.5 813.002L510.5 813.502L510.8 821.302L511.1 829.002H481.6H452.2L447.3 824.602Z" fill="url(#paint3_linear_3_1346)"/>
<path d="M544.6 825.798C538 820.398 538 820.498 538 777.098C538 755.698 538.3 737.498 538.6 736.598C539.1 735.398 540.7 734.998 545.5 734.998C556 734.998 555 730.998 555 774.598V812.998H581H607V820.998V828.998H577.7H548.5L544.6 825.798Z" fill="url(#paint4_linear_3_1346)"/>
<path d="M633 781.898V734.898L665.3 735.198L697.7 735.498L701.8 738.198C709.5 743.298 709.5 743.198 709.8 780.898L710.1 814.298L707.4 819.698C702.8 829.198 703.6 828.998 665.8 828.998H633V781.898ZM692.6 784.098C692.9 768.398 692.9 754.598 692.5 753.298L692 750.998H670.5H649V781.998V812.998L670.6 812.798L692.1 812.498L692.6 784.098Z" fill="url(#paint5_linear_3_1346)"/>
<path d="M464.3 790.398C463.4 789.998 463 787.298 463 781.898C463 772.298 461.9 772.798 482 773.198L496.5 773.498L496.8 781.398C497 786.798 496.7 789.598 495.9 790.098C494.5 790.898 466.2 791.198 464.3 790.398Z" fill="url(#paint6_linear_3_1346)"/>
<path d="M257 494.1C257 413.8 257.3 347.5 257.6 346.6C258.1 345.2 261.2 345 281.5 345C298.9 345 305 344.7 305.7 343.8C306.3 343 306.7 317.4 306.8 278.5C307 218.3 307.5 203.7 309.9 197.5C310.4 196.4 312 191.5 313.5 186.5C322.5 157.1 345.8 127.9 372.9 111.7C384.9 104.6 400.9 98 411.5 95.9C414.3 95.4 419 94.4 422 93.7C425 93.1 435.6 92.6 445.5 92.5C462 92.5 464.5 92.7 475.4 95.4C487.8 98.4 503 104.1 510.9 108.7C514.6 110.8 523.1 116.5 529.5 121.2C530.1 121.6 534.2 125.2 538.7 129.2C561.4 149.3 576.5 177.9 581.5 210.5C582.7 218.4 583 227.9 582.8 256.5L582.5 292.5L553.8 292.8L525 293L524.5 290.8C524.3 289.5 523.9 272.3 523.7 252.5C523.3 211.5 523 209.6 514.4 192.8C507.3 179.2 492.5 164.7 480.4 159.4C478.3 158.5 474.3 156.7 471.5 155.5C463.9 152.1 456.7 150.9 444 151.1C431.1 151.2 423.6 152.9 412 158C392.8 166.4 380 179.4 371.7 199C364.9 215.1 364.9 214.5 365.2 283L365.5 344.5L406.8 344.8L448 345V361.5V378L455.3 378.1C459.2 378.2 465 378.3 468 378.4C471 378.5 498.1 378.6 528.3 378.8L583 379L582.8 406.8L582.5 434.5L515 435C451.5 435.5 447.5 435.6 447.6 437.3C447.6 438.2 447.7 444.6 447.8 451.5L448 464L515.3 464.2L582.5 464.5L582.8 492.2L583 520L515.8 520.2L448.5 520.5V534.5V548.5L515.5 549C552.4 549.3 582.6 549.6 582.8 549.8C582.9 549.9 582.9 562.5 582.8 577.8L582.5 605.5L515.8 605.8L449.2 606L448.5 609.1C448.1 610.8 447.9 617.7 448 624.3C448.2 631 448.2 637.3 448.1 638.3C448 639.9 442.7 640 352.5 640H257V494.1Z" fill="url(#paint7_linear_3_1346)"/>
<path d="M604.7 605.398C603.4 604.098 603.9 551.498 605.2 550.198C606.6 548.798 628.7 548.498 630.7 549.798C631.6 550.398 632 557.298 632 576.498C632 590.798 632 603.198 632 604.198C632 605.598 630.4 605.798 618.7 605.898C611.4 605.998 605.1 605.698 604.7 605.398Z" fill="url(#paint8_linear_3_1346)"/>
<path d="M604.5 519.1C604.2 518.5 604.1 506 604.2 491.3L604.5 464.5H618.3H632.1V492L632 519.5L618.6 519.8C610.6 519.9 604.9 519.7 604.5 519.1Z" fill="url(#paint9_linear_3_1346)"/>
<path d="M605.2 434.098C604.2 433.498 604 427.698 604.2 406.698C604.4 392.098 604.8 379.898 605.2 379.498C606 378.698 630.9 378.498 631.7 379.298C632.4 379.998 632.1 432.998 631.4 434.098C630.7 435.198 606.9 435.198 605.2 434.098Z" fill="url(#paint10_linear_3_1346)"/>
</g>
<defs>
<linearGradient id="paint0_linear_3_1346" x1="2.517" y1="9.08578" x2="6.93877" y2="1.82772" gradientUnits="userSpaceOnUse">
<stop stop-color="#BE1E20"/>
<stop offset="0.4" stop-color="#AA1A1D"/>
<stop offset="0.46" stop-color="#901619"/>
<stop offset="0.49" stop-color="#A91C1F"/>
<stop offset="0.61" stop-color="#BA2326"/>
<stop offset="0.65" stop-color="#A21F21"/>
<stop offset="0.67" stop-color="#A41E21"/>
<stop offset="0.7" stop-color="#9B1B1D"/>
<stop offset="0.72" stop-color="#A51F21"/>
<stop offset="0.76" stop-color="#A31E21"/>
<stop offset="0.78" stop-color="#951719"/>
<stop offset="0.8" stop-color="#9E191B"/>
<stop offset="0.82" stop-color="#AA1B1E"/>
<stop offset="1" stop-color="#D93134"/>
</linearGradient>
<linearGradient id="paint1_linear_3_1346" x1="2.51701" y1="9.08447" x2="6.93878" y2="1.8264" gradientUnits="userSpaceOnUse">
<stop stop-color="#BE1E20"/>
<stop offset="0.4" stop-color="#AA1A1D"/>
<stop offset="0.46" stop-color="#901619"/>
<stop offset="0.49" stop-color="#A91C1F"/>
<stop offset="0.61" stop-color="#BA2326"/>
<stop offset="0.65" stop-color="#A21F21"/>
<stop offset="0.67" stop-color="#A41E21"/>
<stop offset="0.7" stop-color="#9B1B1D"/>
<stop offset="0.72" stop-color="#A51F21"/>
<stop offset="0.76" stop-color="#A31E21"/>
<stop offset="0.78" stop-color="#951719"/>
<stop offset="0.8" stop-color="#9E191B"/>
<stop offset="0.82" stop-color="#AA1B1E"/>
<stop offset="1" stop-color="#D93134"/>
</linearGradient>
<linearGradient id="paint2_linear_3_1346" x1="2.51704" y1="9.08602" x2="6.93881" y2="1.82795" gradientUnits="userSpaceOnUse">
<stop stop-color="#BE1E20"/>
<stop offset="0.4" stop-color="#AA1A1D"/>
<stop offset="0.46" stop-color="#901619"/>
<stop offset="0.49" stop-color="#A91C1F"/>
<stop offset="0.61" stop-color="#BA2326"/>
<stop offset="0.65" stop-color="#A21F21"/>
<stop offset="0.67" stop-color="#A41E21"/>
<stop offset="0.7" stop-color="#9B1B1D"/>
<stop offset="0.72" stop-color="#A51F21"/>
<stop offset="0.76" stop-color="#A31E21"/>
<stop offset="0.78" stop-color="#951719"/>
<stop offset="0.8" stop-color="#9E191B"/>
<stop offset="0.82" stop-color="#AA1B1E"/>
<stop offset="1" stop-color="#D93134"/>
</linearGradient>
<linearGradient id="paint3_linear_3_1346" x1="2.51709" y1="9.08758" x2="6.93886" y2="1.82951" gradientUnits="userSpaceOnUse">
<stop stop-color="#BE1E20"/>
<stop offset="0.4" stop-color="#AA1A1D"/>
<stop offset="0.46" stop-color="#901619"/>
<stop offset="0.49" stop-color="#A91C1F"/>
<stop offset="0.61" stop-color="#BA2326"/>
<stop offset="0.65" stop-color="#A21F21"/>
<stop offset="0.67" stop-color="#A41E21"/>
<stop offset="0.7" stop-color="#9B1B1D"/>
<stop offset="0.72" stop-color="#A51F21"/>
<stop offset="0.76" stop-color="#A31E21"/>
<stop offset="0.78" stop-color="#951719"/>
<stop offset="0.8" stop-color="#9E191B"/>
<stop offset="0.82" stop-color="#AA1B1E"/>
<stop offset="1" stop-color="#D93134"/>
</linearGradient>
<linearGradient id="paint4_linear_3_1346" x1="2.517" y1="9.08445" x2="6.93877" y2="1.82638" gradientUnits="userSpaceOnUse">
<stop stop-color="#BE1E20"/>
<stop offset="0.4" stop-color="#AA1A1D"/>
<stop offset="0.46" stop-color="#901619"/>
<stop offset="0.49" stop-color="#A91C1F"/>
<stop offset="0.61" stop-color="#BA2326"/>
<stop offset="0.65" stop-color="#A21F21"/>
<stop offset="0.67" stop-color="#A41E21"/>
<stop offset="0.7" stop-color="#9B1B1D"/>
<stop offset="0.72" stop-color="#A51F21"/>
<stop offset="0.76" stop-color="#A31E21"/>
<stop offset="0.78" stop-color="#951719"/>
<stop offset="0.8" stop-color="#9E191B"/>
<stop offset="0.82" stop-color="#AA1B1E"/>
<stop offset="1" stop-color="#D93134"/>
</linearGradient>
<linearGradient id="paint5_linear_3_1346" x1="2.51704" y1="9.08444" x2="6.93881" y2="1.82637" gradientUnits="userSpaceOnUse">
<stop stop-color="#BE1E20"/>
<stop offset="0.4" stop-color="#AA1A1D"/>
<stop offset="0.46" stop-color="#901619"/>
<stop offset="0.49" stop-color="#A91C1F"/>
<stop offset="0.61" stop-color="#BA2326"/>
<stop offset="0.65" stop-color="#A21F21"/>
<stop offset="0.67" stop-color="#A41E21"/>
<stop offset="0.7" stop-color="#9B1B1D"/>
<stop offset="0.72" stop-color="#A51F21"/>
<stop offset="0.76" stop-color="#A31E21"/>
<stop offset="0.78" stop-color="#951719"/>
<stop offset="0.8" stop-color="#9E191B"/>
<stop offset="0.82" stop-color="#AA1B1E"/>
<stop offset="1" stop-color="#D93134"/>
</linearGradient>
<linearGradient id="paint6_linear_3_1346" x1="2.51694" y1="9.08417" x2="6.93871" y2="1.82611" gradientUnits="userSpaceOnUse">
<stop stop-color="#BE1E20"/>
<stop offset="0.4" stop-color="#AA1A1D"/>
<stop offset="0.46" stop-color="#901619"/>
<stop offset="0.49" stop-color="#A91C1F"/>
<stop offset="0.61" stop-color="#BA2326"/>
<stop offset="0.65" stop-color="#A21F21"/>
<stop offset="0.67" stop-color="#A41E21"/>
<stop offset="0.7" stop-color="#9B1B1D"/>
<stop offset="0.72" stop-color="#A51F21"/>
<stop offset="0.76" stop-color="#A31E21"/>
<stop offset="0.78" stop-color="#951719"/>
<stop offset="0.8" stop-color="#9E191B"/>
<stop offset="0.82" stop-color="#AA1B1E"/>
<stop offset="1" stop-color="#D93134"/>
</linearGradient>
<linearGradient id="paint7_linear_3_1346" x1="2.51701" y1="9.08603" x2="6.93878" y2="1.82796" gradientUnits="userSpaceOnUse">
<stop stop-color="#BE1E20"/>
<stop offset="0.4" stop-color="#AA1A1D"/>
<stop offset="0.46" stop-color="#901619"/>
<stop offset="0.49" stop-color="#A91C1F"/>
<stop offset="0.61" stop-color="#BA2326"/>
<stop offset="0.65" stop-color="#A21F21"/>
<stop offset="0.67" stop-color="#A41E21"/>
<stop offset="0.7" stop-color="#9B1B1D"/>
<stop offset="0.72" stop-color="#A51F21"/>
<stop offset="0.76" stop-color="#A31E21"/>
<stop offset="0.78" stop-color="#951719"/>
<stop offset="0.8" stop-color="#9E191B"/>
<stop offset="0.82" stop-color="#AA1B1E"/>
<stop offset="1" stop-color="#D93134"/>
</linearGradient>
<linearGradient id="paint8_linear_3_1346" x1="2.51715" y1="9.08416" x2="6.93891" y2="1.8261" gradientUnits="userSpaceOnUse">
<stop stop-color="#BE1E20"/>
<stop offset="0.4" stop-color="#AA1A1D"/>
<stop offset="0.46" stop-color="#901619"/>
<stop offset="0.49" stop-color="#A91C1F"/>
<stop offset="0.61" stop-color="#BA2326"/>
<stop offset="0.65" stop-color="#A21F21"/>
<stop offset="0.67" stop-color="#A41E21"/>
<stop offset="0.7" stop-color="#9B1B1D"/>
<stop offset="0.72" stop-color="#A51F21"/>
<stop offset="0.76" stop-color="#A31E21"/>
<stop offset="0.78" stop-color="#951719"/>
<stop offset="0.8" stop-color="#9E191B"/>
<stop offset="0.82" stop-color="#AA1B1E"/>
<stop offset="1" stop-color="#D93134"/>
</linearGradient>
<linearGradient id="paint9_linear_3_1346" x1="2.51706" y1="9.08601" x2="6.93883" y2="1.82794" gradientUnits="userSpaceOnUse">
<stop stop-color="#BE1E20"/>
<stop offset="0.4" stop-color="#AA1A1D"/>
<stop offset="0.46" stop-color="#901619"/>
<stop offset="0.49" stop-color="#A91C1F"/>
<stop offset="0.61" stop-color="#BA2326"/>
<stop offset="0.65" stop-color="#A21F21"/>
<stop offset="0.67" stop-color="#A41E21"/>
<stop offset="0.7" stop-color="#9B1B1D"/>
<stop offset="0.72" stop-color="#A51F21"/>
<stop offset="0.76" stop-color="#A31E21"/>
<stop offset="0.78" stop-color="#951719"/>
<stop offset="0.8" stop-color="#9E191B"/>
<stop offset="0.82" stop-color="#AA1B1E"/>
<stop offset="1" stop-color="#D93134"/>
</linearGradient>
<linearGradient id="paint10_linear_3_1346" x1="2.51708" y1="9.08439" x2="6.93885" y2="1.82632" gradientUnits="userSpaceOnUse">
<stop stop-color="#BE1E20"/>
<stop offset="0.4" stop-color="#AA1A1D"/>
<stop offset="0.46" stop-color="#901619"/>
<stop offset="0.49" stop-color="#A91C1F"/>
<stop offset="0.61" stop-color="#BA2326"/>
<stop offset="0.65" stop-color="#A21F21"/>
<stop offset="0.67" stop-color="#A41E21"/>
<stop offset="0.7" stop-color="#9B1B1D"/>
<stop offset="0.72" stop-color="#A51F21"/>
<stop offset="0.76" stop-color="#A31E21"/>
<stop offset="0.78" stop-color="#951719"/>
<stop offset="0.8" stop-color="#9E191B"/>
<stop offset="0.82" stop-color="#AA1B1E"/>
<stop offset="1" stop-color="#D93134"/>
</linearGradient>
<clipPath id="clip0_3_1346">
<rect width="882" height="930" fill="white"/>
</clipPath>
</defs>
</svg>
